<svg width="33" height="32" viewBox="0 0 33 32" fill="none" xmlns="http://www.w3.org/2000/svg">
<path fill-rule="evenodd" clip-rule="evenodd" d="M9.03952 14.6549L15.2617 18.3145C15.5432 18.4812 15.8395 18.5645 16.1506 18.5645C16.4617 18.5645 16.758 18.4812 17.0395 18.3145L23.2617 14.6549C23.5432 14.4883 23.7617 14.2685 23.9173 13.9958C24.0729 13.723 24.1506 13.4199 24.1506 13.0866V5.85835C24.1506 5.52498 24.0729 5.22191 23.9173 4.94914C23.7617 4.67638 23.5432 4.45666 23.2617 4.28997L17.0395 0.630403C16.758 0.463715 16.4617 0.380371 16.1506 0.380371C15.8395 0.380371 15.5432 0.463715 15.2617 0.630403L9.03952 4.28997C8.75804 4.45666 8.53952 4.67638 8.38397 4.94914C8.22841 5.22191 8.15063 5.52498 8.15063 5.85835V13.0866C8.15063 13.4199 8.22841 13.723 8.38397 13.9958C8.53952 14.2685 8.75804 14.4883 9.03952 14.6549ZM17.0395 9.99525V16.2233L22.3729 13.0638V6.83575L17.0395 9.99525ZM15.2617 9.99525V16.2233L9.92841 13.0638V6.83575L15.2617 9.99525ZM16.1506 8.42687L17.884 7.40401L12.6173 4.28997L10.884 5.31283L16.1506 8.42687ZM21.4173 5.31283L19.7062 6.31296L14.4173 3.22165L16.1506 2.19879L21.4173 5.31283Z" fill="#FEFCFF"/>
<path fill-rule="evenodd" clip-rule="evenodd" d="M17.0395 27.4706L23.2617 31.1302C23.5432 31.2969 23.8395 31.3802 24.1506 31.3802C24.4617 31.3802 24.758 31.2969 25.0395 31.1302L31.2617 27.4706C31.5432 27.3039 31.7617 27.0842 31.9173 26.8114C32.0729 26.5387 32.1506 26.2356 32.1506 25.9022V18.674C32.1506 18.3407 32.0729 18.0376 31.9173 17.7648C31.7617 17.4921 31.5432 17.2723 31.2617 17.1056L25.0395 13.4461C24.758 13.2794 24.4617 13.196 24.1506 13.196C23.8395 13.196 23.5432 13.2794 23.2617 13.4461L17.0395 17.1056C16.758 17.2723 16.5395 17.4921 16.384 17.7648C16.2284 18.0376 16.1506 18.3407 16.1506 18.674V25.9022C16.1506 26.2356 16.2284 26.5387 16.384 26.8114C16.5395 27.0842 16.758 27.3039 17.0395 27.4706ZM25.0395 22.8109V29.039L30.3729 25.8795V19.6514L25.0395 22.8109ZM23.2617 22.8109V29.039L17.9284 25.8795V19.6514L23.2617 22.8109ZM24.1506 21.2425L25.884 20.2197L20.6173 17.1056L18.884 18.1285L24.1506 21.2425ZM29.4173 18.1285L27.7062 19.1286L22.4173 16.0373L24.1506 15.0145L29.4173 18.1285Z" fill="#FEFCFF"/>
<path fill-rule="evenodd" clip-rule="evenodd" d="M1.03952 27.4706L7.26175 31.1302C7.54323 31.2969 7.83952 31.3802 8.15063 31.3802C8.46175 31.3802 8.75804 31.2969 9.03952 31.1302L15.2617 27.4706C15.5432 27.3039 15.7617 27.0842 15.9173 26.8114C16.0729 26.5387 16.1506 26.2356 16.1506 25.9022V18.674C16.1506 18.3407 16.0729 18.0376 15.9173 17.7648C15.7617 17.4921 15.5432 17.2723 15.2617 17.1056L9.03952 13.4461C8.75804 13.2794 8.46175 13.196 8.15063 13.196C7.83952 13.196 7.54323 13.2794 7.26175 13.4461L1.03952 17.1056C0.758042 17.2723 0.539524 17.4921 0.383968 17.7648C0.228413 18.0376 0.150635 18.3407 0.150635 18.674V25.9022C0.150635 26.2356 0.228413 26.5387 0.383968 26.8114C0.539524 27.0842 0.758042 27.3039 1.03952 27.4706ZM9.03952 22.8109V29.039L14.3729 25.8795V19.6514L9.03952 22.8109ZM7.26175 22.8109V29.039L1.92841 25.8795V19.6514L7.26175 22.8109ZM8.15063 21.2425L9.88397 20.2197L4.6173 17.1056L2.88397 18.1285L8.15063 21.2425ZM13.4173 18.1285L11.7062 19.1286L6.4173 16.0373L8.15063 15.0145L13.4173 18.1285Z" fill="#FEFCFF"/>
</svg>
