<svg width="24" height="25" viewBox="0 0 24 25" fill="none" xmlns="http://www.w3.org/2000/svg">
<mask id="mask0_654_1227" style="mask-type:alpha" maskUnits="userSpaceOnUse" x="0" y="0" width="24" height="25">
<rect width="24" height="24" transform="matrix(-1 0 0 1 24 0.880371)" fill="#D9D9D9"/>
</mask>
<g mask="url(#mask0_654_1227)">
<path d="M12 20.8804C12.55 20.8804 13.0208 20.6845 13.4125 20.2929C13.8042 19.9012 14 19.4304 14 18.8804C14 18.3304 13.8042 17.8595 13.4125 17.4679C13.0208 17.0762 12.55 16.8804 12 16.8804C11.45 16.8804 10.9792 17.0762 10.5875 17.4679C10.1958 17.8595 10 18.3304 10 18.8804C10 19.4304 10.1958 19.9012 10.5875 20.2929C10.9792 20.6845 11.45 20.8804 12 20.8804ZM12 14.8804C12.55 14.8804 13.0208 14.6845 13.4125 14.2929C13.8042 13.9012 14 13.4304 14 12.8804C14 12.3304 13.8042 11.8595 13.4125 11.4679C13.0208 11.0762 12.55 10.8804 12 10.8804C11.45 10.8804 10.9792 11.0762 10.5875 11.4679C10.1958 11.8595 10 12.3304 10 12.8804C10 13.4304 10.1958 13.9012 10.5875 14.2929C10.9792 14.6845 11.45 14.8804 12 14.8804ZM12 8.88037C12.55 8.88037 13.0208 8.68454 13.4125 8.29287C13.8042 7.9012 14 7.43037 14 6.88037C14 6.33037 13.8042 5.85954 13.4125 5.46787C13.0208 5.0762 12.55 4.88037 12 4.88037C11.45 4.88037 10.9792 5.0762 10.5875 5.46787C10.1958 5.85954 10 6.33037 10 6.88037C10 7.43037 10.1958 7.9012 10.5875 8.29287C10.9792 8.68454 11.45 8.88037 12 8.88037Z" fill="#0E001C"/>
</g>
</svg>
