<svg width="24" height="25" viewBox="0 0 24 25" fill="none" xmlns="http://www.w3.org/2000/svg">
<mask id="mask0_283_1907" style="mask-type:alpha" maskUnits="userSpaceOnUse" x="0" y="0" width="24" height="25">
<rect y="0.0126953" width="24" height="24" fill="#D9D9D9"/>
</mask>
<g mask="url(#mask0_283_1907)">
<path d="M19.6 21.0127L13.3 14.7127C12.8 15.1127 12.225 15.4294 11.575 15.6627C10.925 15.896 10.2333 16.0127 9.5 16.0127C7.68333 16.0127 6.14583 15.3835 4.8875 14.1252C3.62917 12.8669 3 11.3294 3 9.5127C3 7.69603 3.62917 6.15853 4.8875 4.9002C6.14583 3.64186 7.68333 3.0127 9.5 3.0127C11.3167 3.0127 12.8542 3.64186 14.1125 4.9002C15.3708 6.15853 16 7.69603 16 9.5127C16 10.246 15.8833 10.9377 15.65 11.5877C15.4167 12.2377 15.1 12.8127 14.7 13.3127L21 19.6127L19.6 21.0127ZM9.5 14.0127C10.75 14.0127 11.8125 13.5752 12.6875 12.7002C13.5625 11.8252 14 10.7627 14 9.5127C14 8.2627 13.5625 7.2002 12.6875 6.3252C11.8125 5.4502 10.75 5.0127 9.5 5.0127C8.25 5.0127 7.1875 5.4502 6.3125 6.3252C5.4375 7.2002 5 8.2627 5 9.5127C5 10.7627 5.4375 11.8252 6.3125 12.7002C7.1875 13.5752 8.25 14.0127 9.5 14.0127Z" fill="#0E001C" fill-opacity="0.5"/>
</g>
</svg>
