<svg width="184" height="180" viewBox="0 0 184 180" fill="none" xmlns="http://www.w3.org/2000/svg">
<mask id="mask0_700_277" style="mask-type:alpha" maskUnits="userSpaceOnUse" x="19" y="0" width="146" height="146">
<rect x="19.4706" y="0.483887" width="145.059" height="145.059" fill="#D9D9D9"/>
</mask>
<g mask="url(#mask0_700_277)">
<path d="M49.6911 127.41C46.3669 127.41 43.5211 126.227 41.1538 123.859C38.7865 121.492 37.6029 118.646 37.6029 115.322V30.7044C37.6029 27.3802 38.7865 24.5344 41.1538 22.1671C43.5211 19.7999 46.3669 18.6162 49.6911 18.6162H134.309C137.633 18.6162 140.479 19.7999 142.846 22.1671C145.213 24.5344 146.397 27.3802 146.397 30.7044V115.322C146.397 118.646 145.213 121.492 142.846 123.859C140.479 126.227 137.633 127.41 134.309 127.41H49.6911ZM49.6911 115.322H134.309V30.7044H49.6911V115.322ZM55.7353 103.234H128.265L105.599 73.0133L87.4669 97.1897L73.8676 79.0574L55.7353 103.234Z" fill="#0E001C" fill-opacity="0.5"/>
</g>
<path d="M16.4588 157.088H18.5724V168.645C18.5724 169.838 18.2912 170.904 17.7287 171.841C17.1719 172.773 16.3849 173.509 15.3679 174.049C14.3509 174.583 13.1577 174.85 11.7884 174.85C10.419 174.85 9.22585 174.583 8.20881 174.049C7.19176 173.509 6.40199 172.773 5.83949 171.841C5.28267 170.904 5.00426 169.838 5.00426 168.645V157.088H7.1179V168.475C7.1179 169.327 7.3054 170.086 7.6804 170.75C8.0554 171.409 8.58949 171.929 9.28267 172.31C9.98153 172.685 10.8168 172.873 11.7884 172.873C12.7599 172.873 13.5952 172.685 14.294 172.31C14.9929 171.929 15.527 171.409 15.8963 170.75C16.2713 170.086 16.4588 169.327 16.4588 168.475V157.088ZM22.5206 179.452V161.452H24.4638V163.532H24.7024C24.8501 163.304 25.0547 163.015 25.3161 162.662C25.5831 162.304 25.9638 161.986 26.4581 161.708C26.9581 161.424 27.6342 161.282 28.4865 161.282C29.5888 161.282 30.5604 161.557 31.4013 162.108C32.2422 162.659 32.8984 163.441 33.37 164.452C33.8416 165.463 34.0774 166.657 34.0774 168.032C34.0774 169.418 33.8416 170.62 33.37 171.637C32.8984 172.648 32.245 173.432 31.4098 173.989C30.5746 174.54 29.6115 174.816 28.5206 174.816C27.6797 174.816 27.0064 174.676 26.5007 174.398C25.995 174.114 25.6058 173.793 25.3331 173.435C25.0604 173.071 24.8501 172.77 24.7024 172.532H24.532V179.452H22.5206ZM24.4979 167.998C24.4979 168.986 24.6428 169.858 24.9325 170.614C25.2223 171.364 25.6456 171.952 26.2024 172.378C26.7592 172.799 27.4411 173.009 28.2479 173.009C29.0888 173.009 29.7905 172.787 30.353 172.344C30.9212 171.895 31.3473 171.293 31.6314 170.537C31.9212 169.776 32.0661 168.929 32.0661 167.998C32.0661 167.077 31.924 166.248 31.6399 165.509C31.3615 164.765 30.9382 164.176 30.37 163.745C29.8075 163.307 29.1001 163.088 28.2479 163.088C27.4297 163.088 26.7422 163.296 26.1854 163.711C25.6286 164.12 25.2081 164.694 24.924 165.432C24.6399 166.165 24.4979 167.02 24.4979 167.998ZM39.157 157.088V174.543H37.1456V157.088H39.157ZM48.1591 174.816C46.9773 174.816 45.9403 174.534 45.0483 173.972C44.1619 173.409 43.4688 172.623 42.9688 171.611C42.4744 170.6 42.2273 169.418 42.2273 168.066C42.2273 166.702 42.4744 165.512 42.9688 164.495C43.4688 163.478 44.1619 162.688 45.0483 162.125C45.9403 161.563 46.9773 161.282 48.1591 161.282C49.3409 161.282 50.375 161.563 51.2614 162.125C52.1534 162.688 52.8466 163.478 53.3409 164.495C53.8409 165.512 54.0909 166.702 54.0909 168.066C54.0909 169.418 53.8409 170.6 53.3409 171.611C52.8466 172.623 52.1534 173.409 51.2614 173.972C50.375 174.534 49.3409 174.816 48.1591 174.816ZM48.1591 173.009C49.0568 173.009 49.7955 172.779 50.375 172.319C50.9545 171.858 51.3835 171.253 51.6619 170.503C51.9403 169.753 52.0795 168.941 52.0795 168.066C52.0795 167.191 51.9403 166.375 51.6619 165.62C51.3835 164.864 50.9545 164.253 50.375 163.787C49.7955 163.321 49.0568 163.088 48.1591 163.088C47.2614 163.088 46.5227 163.321 45.9432 163.787C45.3636 164.253 44.9347 164.864 44.6562 165.62C44.3778 166.375 44.2386 167.191 44.2386 168.066C44.2386 168.941 44.3778 169.753 44.6562 170.503C44.9347 171.253 45.3636 171.858 45.9432 172.319C46.5227 172.779 47.2614 173.009 48.1591 173.009ZM65.4112 169.191V161.452H67.4226V174.543H65.4112V172.327H65.2749C64.968 172.992 64.4908 173.557 63.843 174.023C63.1953 174.483 62.3771 174.713 61.3885 174.713C60.5703 174.713 59.843 174.534 59.2067 174.176C58.5703 173.813 58.0703 173.267 57.7067 172.54C57.343 171.807 57.1612 170.884 57.1612 169.77V161.452H59.1726V169.634C59.1726 170.588 59.4396 171.35 59.9737 171.918C60.5135 172.486 61.201 172.77 62.0362 172.77C62.5362 172.77 63.0447 172.642 63.5618 172.387C64.0845 172.131 64.522 171.739 64.8743 171.211C65.2322 170.682 65.4112 170.009 65.4112 169.191ZM76.0497 174.816C74.9588 174.816 73.9957 174.54 73.1605 173.989C72.3253 173.432 71.6719 172.648 71.2003 171.637C70.7287 170.62 70.4929 169.418 70.4929 168.032C70.4929 166.657 70.7287 165.463 71.2003 164.452C71.6719 163.441 72.3281 162.659 73.169 162.108C74.0099 161.557 74.9815 161.282 76.0838 161.282C76.9361 161.282 77.6094 161.424 78.1037 161.708C78.6037 161.986 78.9844 162.304 79.2457 162.662C79.5128 163.015 79.7202 163.304 79.8679 163.532H80.0384V157.088H82.0497V174.543H80.1065V172.532H79.8679C79.7202 172.77 79.5099 173.071 79.2372 173.435C78.9645 173.793 78.5753 174.114 78.0696 174.398C77.5639 174.676 76.8906 174.816 76.0497 174.816ZM76.3224 173.009C77.1293 173.009 77.8111 172.799 78.3679 172.378C78.9247 171.952 79.348 171.364 79.6378 170.614C79.9276 169.858 80.0724 168.986 80.0724 167.998C80.0724 167.02 79.9304 166.165 79.6463 165.432C79.3622 164.694 78.9418 164.12 78.3849 163.711C77.8281 163.296 77.1406 163.088 76.3224 163.088C75.4702 163.088 74.7599 163.307 74.1918 163.745C73.6293 164.176 73.206 164.765 72.9219 165.509C72.6435 166.248 72.5043 167.077 72.5043 167.998C72.5043 168.929 72.6463 169.776 72.9304 170.537C73.2202 171.293 73.6463 171.895 74.2088 172.344C74.777 172.787 75.4815 173.009 76.3224 173.009ZM95.1491 157.088V174.543H93.0355V157.088H95.1491ZM99.1143 174.543V161.452H101.058V163.498H101.228C101.501 162.799 101.941 162.256 102.549 161.87C103.157 161.478 103.887 161.282 104.739 161.282C105.603 161.282 106.322 161.478 106.896 161.87C107.475 162.256 107.927 162.799 108.251 163.498H108.387C108.722 162.821 109.225 162.284 109.896 161.887C110.566 161.483 111.37 161.282 112.308 161.282C113.478 161.282 114.435 161.648 115.18 162.381C115.924 163.108 116.296 164.242 116.296 165.782V174.543H114.285V165.782C114.285 164.816 114.021 164.125 113.492 163.711C112.964 163.296 112.342 163.088 111.626 163.088C110.705 163.088 109.992 163.367 109.487 163.924C108.981 164.475 108.728 165.174 108.728 166.02V174.543H106.683V165.577C106.683 164.833 106.441 164.233 105.958 163.779C105.475 163.319 104.853 163.088 104.092 163.088C103.569 163.088 103.08 163.228 102.626 163.506C102.177 163.784 101.813 164.171 101.535 164.665C101.262 165.154 101.126 165.719 101.126 166.361V174.543H99.1143ZM123.826 174.85C122.996 174.85 122.244 174.694 121.567 174.381C120.891 174.063 120.354 173.605 119.957 173.009C119.559 172.407 119.36 171.679 119.36 170.827C119.36 170.077 119.508 169.469 119.803 169.003C120.099 168.532 120.494 168.162 120.988 167.895C121.482 167.628 122.028 167.429 122.624 167.299C123.227 167.162 123.832 167.054 124.44 166.975C125.235 166.873 125.88 166.796 126.374 166.745C126.874 166.688 127.238 166.594 127.465 166.463C127.698 166.333 127.815 166.105 127.815 165.782V165.713C127.815 164.873 127.585 164.219 127.124 163.753C126.67 163.287 125.979 163.054 125.053 163.054C124.093 163.054 123.34 163.265 122.795 163.685C122.249 164.105 121.866 164.554 121.644 165.032L119.735 164.35C120.076 163.554 120.531 162.935 121.099 162.492C121.673 162.043 122.298 161.73 122.974 161.554C123.656 161.373 124.326 161.282 124.985 161.282C125.406 161.282 125.888 161.333 126.434 161.435C126.985 161.532 127.516 161.733 128.028 162.04C128.545 162.347 128.974 162.81 129.315 163.429C129.656 164.049 129.826 164.878 129.826 165.918V174.543H127.815V172.77H127.712C127.576 173.054 127.349 173.358 127.031 173.682C126.712 174.006 126.289 174.282 125.761 174.509C125.232 174.736 124.587 174.85 123.826 174.85ZM124.133 173.043C124.928 173.043 125.599 172.887 126.144 172.574C126.695 172.262 127.11 171.858 127.388 171.364C127.673 170.87 127.815 170.35 127.815 169.804V167.963C127.729 168.066 127.542 168.159 127.252 168.245C126.968 168.324 126.638 168.395 126.263 168.458C125.894 168.515 125.533 168.566 125.181 168.611C124.835 168.651 124.553 168.685 124.337 168.713C123.815 168.782 123.326 168.892 122.871 169.046C122.423 169.194 122.059 169.418 121.781 169.719C121.508 170.015 121.371 170.418 121.371 170.929C121.371 171.628 121.63 172.157 122.147 172.515C122.67 172.867 123.332 173.043 124.133 173.043ZM138.781 179.725C137.81 179.725 136.974 179.6 136.276 179.35C135.577 179.105 134.994 178.782 134.528 178.378C134.068 177.98 133.702 177.554 133.429 177.1L135.031 175.975C135.213 176.213 135.443 176.486 135.722 176.793C136 177.105 136.381 177.375 136.864 177.603C137.352 177.836 137.991 177.952 138.781 177.952C139.838 177.952 140.71 177.696 141.398 177.185C142.085 176.674 142.429 175.873 142.429 174.782V172.123H142.259C142.111 172.361 141.901 172.657 141.628 173.009C141.361 173.355 140.974 173.665 140.469 173.938C139.969 174.205 139.293 174.338 138.44 174.338C137.384 174.338 136.435 174.088 135.594 173.588C134.759 173.088 134.097 172.361 133.608 171.407C133.125 170.452 132.884 169.293 132.884 167.929C132.884 166.588 133.119 165.421 133.591 164.426C134.063 163.426 134.719 162.654 135.56 162.108C136.401 161.557 137.372 161.282 138.474 161.282C139.327 161.282 140.003 161.424 140.503 161.708C141.009 161.986 141.395 162.304 141.662 162.662C141.935 163.015 142.145 163.304 142.293 163.532H142.497V161.452H144.44V174.918C144.44 176.043 144.185 176.958 143.673 177.662C143.168 178.373 142.486 178.892 141.628 179.222C140.776 179.557 139.827 179.725 138.781 179.725ZM138.713 172.532C139.52 172.532 140.202 172.347 140.759 171.978C141.315 171.608 141.739 171.077 142.028 170.384C142.318 169.691 142.463 168.861 142.463 167.895C142.463 166.952 142.321 166.12 142.037 165.398C141.753 164.676 141.332 164.111 140.776 163.702C140.219 163.293 139.531 163.088 138.713 163.088C137.861 163.088 137.151 163.304 136.582 163.736C136.02 164.168 135.597 164.748 135.312 165.475C135.034 166.202 134.895 167.009 134.895 167.895C134.895 168.804 135.037 169.608 135.321 170.307C135.611 171 136.037 171.546 136.599 171.944C137.168 172.336 137.872 172.532 138.713 172.532ZM153.611 174.816C152.349 174.816 151.261 174.537 150.347 173.98C149.438 173.418 148.736 172.634 148.241 171.628C147.753 170.617 147.509 169.441 147.509 168.1C147.509 166.759 147.753 165.577 148.241 164.554C148.736 163.526 149.423 162.725 150.304 162.151C151.19 161.571 152.224 161.282 153.406 161.282C154.088 161.282 154.761 161.395 155.426 161.623C156.091 161.85 156.696 162.219 157.241 162.73C157.787 163.236 158.222 163.907 158.545 164.742C158.869 165.577 159.031 166.605 159.031 167.827V168.679H148.94V166.941H156.986C156.986 166.202 156.838 165.543 156.543 164.963C156.253 164.384 155.838 163.926 155.298 163.591C154.764 163.256 154.134 163.088 153.406 163.088C152.605 163.088 151.912 163.287 151.327 163.685C150.747 164.077 150.301 164.588 149.989 165.219C149.676 165.85 149.52 166.526 149.52 167.248V168.407C149.52 169.395 149.69 170.233 150.031 170.921C150.378 171.603 150.858 172.123 151.472 172.48C152.085 172.833 152.798 173.009 153.611 173.009C154.139 173.009 154.616 172.935 155.043 172.787C155.474 172.634 155.847 172.407 156.159 172.105C156.472 171.799 156.713 171.418 156.884 170.963L158.827 171.509C158.622 172.168 158.278 172.748 157.795 173.248C157.313 173.742 156.716 174.128 156.006 174.407C155.295 174.679 154.497 174.816 153.611 174.816ZM162.091 174.543V161.452H164.034V163.498H164.205C164.477 162.799 164.918 162.256 165.526 161.87C166.134 161.478 166.864 161.282 167.716 161.282C168.58 161.282 169.298 161.478 169.872 161.87C170.452 162.256 170.903 162.799 171.227 163.498H171.364C171.699 162.821 172.202 162.284 172.872 161.887C173.543 161.483 174.347 161.282 175.284 161.282C176.455 161.282 177.412 161.648 178.156 162.381C178.901 163.108 179.273 164.242 179.273 165.782V174.543H177.261V165.782C177.261 164.816 176.997 164.125 176.469 163.711C175.94 163.296 175.318 163.088 174.602 163.088C173.682 163.088 172.969 163.367 172.463 163.924C171.957 164.475 171.705 165.174 171.705 166.02V174.543H169.659V165.577C169.659 164.833 169.418 164.233 168.935 163.779C168.452 163.319 167.83 163.088 167.068 163.088C166.545 163.088 166.057 163.228 165.602 163.506C165.153 163.784 164.79 164.171 164.511 164.665C164.239 165.154 164.102 165.719 164.102 166.361V174.543H162.091Z" fill="#0E001C" fill-opacity="0.5"/>
</svg>
