<?xml version="1.0" encoding="UTF-8"?>
<svg id="Layer_1" data-name="Layer 1" xmlns="http://www.w3.org/2000/svg" viewBox="0 0 235.86 235.86">
  <defs>
    <style>
      .cls-1 {
        fill: #231f20;
        stroke-width: 0px;
      }
    </style>
  </defs>
  <path class="cls-1" d="M232.93,2.93h0c-3.91-3.91-10.24-3.91-14.14,0l-100.86,100.86L17.07,2.93C13.17-.98,6.83-.98,2.93,2.93h0c-3.91,3.91-3.91,10.24,0,14.14l100.86,100.86L2.93,218.79c-3.91,3.91-3.91,10.24,0,14.14h0c3.91,3.91,10.24,3.91,14.14,0l100.86-100.86,100.86,100.86c3.91,3.91,10.24,3.91,14.14,0h0c3.91-3.91,3.91-10.24,0-14.14l-100.86-100.86L232.93,17.07c3.91-3.91,3.91-10.24,0-14.14Z"/>
</svg>